<svg width="160" height="27" viewBox="0 0 160 27" fill="none" xmlns="http://www.w3.org/2000/svg">
<path d="M55.2946 19.0651C53.1106 19.0651 51.3666 18.4245 50.061 17.1451C48.7554 15.8657 48.1042 14.2056 48.1042 12.1648C48.1042 10.1417 48.765 8.47673 50.0882 7.16993C51.4114 5.86313 53.1458 5.20973 55.2946 5.20973C57.461 5.20973 59.205 5.86313 60.5266 7.16993C61.8498 8.47673 62.5106 10.1417 62.5106 12.1648C62.5106 14.2056 61.8578 15.8657 60.5538 17.1451C59.2498 18.4245 57.4962 19.0651 55.2946 19.0651ZM55.2946 15.6287C56.3954 15.6287 57.2258 15.293 57.7842 14.6219C58.3426 13.9507 58.6226 13.1311 58.6226 12.1648C58.6226 11.2339 58.3378 10.4192 57.7698 9.72061C57.2018 9.02204 56.3762 8.67356 55.293 8.67356C54.2274 8.67356 53.4114 9.02204 52.8434 9.72061C52.2754 10.4192 51.9906 11.2339 51.9906 12.1648C51.9906 13.0957 52.2706 13.9055 52.829 14.5944C53.3906 15.2833 54.2114 15.6287 55.2946 15.6287Z" fill="#130033"/>
<path d="M71.332 19.0651C69.148 19.0651 67.404 18.4245 66.0984 17.1451C64.7928 15.8657 64.1416 14.2056 64.1416 12.1648C64.1416 10.1417 64.8024 8.47673 66.1256 7.16993C67.4488 5.86313 69.1832 5.20973 71.332 5.20973C73.4984 5.20973 75.2424 5.86313 76.564 7.16993C77.8872 8.47673 78.548 10.1417 78.548 12.1648C78.548 14.2056 77.8952 15.8657 76.5912 17.1451C75.2872 18.4245 73.5336 19.0651 71.332 19.0651ZM71.332 15.6287C72.4328 15.6287 73.2632 15.293 73.8216 14.6219C74.38 13.9507 74.66 13.1311 74.66 12.1648C74.66 11.2339 74.3752 10.4192 73.8072 9.72061C73.2392 9.02204 72.4136 8.67356 71.3304 8.67356C70.2648 8.67356 69.4488 9.02204 68.8808 9.72061C68.3128 10.4192 68.028 11.2339 68.028 12.1648C68.028 13.0957 68.308 13.9055 68.8664 14.5944C69.428 15.2833 70.2488 15.6287 71.332 15.6287Z" fill="#130033"/>
<path d="M90.8925 0H94.7533V18.7695H91.3181L91.0781 17.0771C90.0845 18.3662 88.6285 19.0099 86.7101 19.0099C84.7741 19.0099 83.2077 18.3791 82.0093 17.1175C80.8109 15.8558 80.2125 14.1957 80.2125 12.1371C80.2125 10.0253 80.8157 8.34739 82.0237 7.10189C83.2301 5.85801 84.8109 5.23527 86.7645 5.23527C88.5037 5.23527 89.8797 5.86124 90.8925 7.1148V0ZM87.2973 8.72652C86.3197 8.72652 85.5389 9.04435 84.9533 9.68C84.3677 10.3157 84.0749 11.1352 84.0749 12.1371C84.0749 13.1212 84.3629 13.936 84.9405 14.5813C85.5165 15.225 86.3021 15.5477 87.2973 15.5477C88.2733 15.5477 89.1069 15.2702 89.7997 14.7152C90.4925 14.1602 90.8381 13.3019 90.8381 12.1371C90.8381 11.082 90.4829 10.2479 89.7725 9.63967C89.0637 9.03144 88.2381 8.72652 87.2973 8.72652Z" fill="#130033"/>
<path d="M107.507 6.84713L105.616 9.2639C104.71 8.62018 103.672 8.29752 102.5 8.29752C101.897 8.29752 101.43 8.39593 101.102 8.59276C100.772 8.78958 100.609 9.05901 100.609 9.39781C100.609 10.1319 101.257 10.5159 102.553 10.553C103.139 10.5707 103.667 10.611 104.137 10.674C104.608 10.7369 105.113 10.8627 105.656 11.0498C106.196 11.2386 106.644 11.4758 107.002 11.7613C107.357 12.0469 107.658 12.455 107.907 12.9826C108.155 13.5118 108.279 14.1232 108.279 14.8218C108.298 16.0399 107.827 17.0869 106.868 17.963C105.91 18.8406 104.464 19.2794 102.528 19.2794C100.201 19.2794 98.142 18.5276 96.35 17.024L98.0012 14.2846C99.2972 15.359 100.824 15.914 102.582 15.9495C103.15 15.9673 103.625 15.8689 104.006 15.6543C104.387 15.4397 104.569 15.1622 104.552 14.8218C104.552 14.0877 103.806 13.6941 102.315 13.6392C101.657 13.6037 101.024 13.5102 100.411 13.3569C99.798 13.2052 99.2124 12.9729 98.654 12.6583C98.0956 12.3453 97.646 11.9065 97.3084 11.3418C96.9708 10.7788 96.8028 10.1287 96.8028 9.39458C96.8028 7.9813 97.3532 6.91489 98.454 6.20018C99.5548 5.48548 100.896 5.12569 102.475 5.12569C104.515 5.12893 106.192 5.70166 107.507 6.84713Z" fill="#130033"/>
<path d="M110.234 2.31031L114.068 1.88117V5.58699H117.398V8.80882H114.043V13.8037C114.043 14.9846 114.539 15.5767 115.534 15.5767C116.173 15.5767 116.705 15.4686 117.133 15.2541L118.011 18.4759C117.14 18.8163 116.218 19.0131 115.242 19.0664C113.697 19.1374 112.477 18.7663 111.579 17.9516C110.683 17.1368 110.235 15.7542 110.235 13.8021L110.234 2.31031Z" fill="#130033"/>
<path d="M129.202 7.03593L129.335 5.50487H132.93V18.7696H129.468L129.255 17.1047C128.846 17.75 128.257 18.2324 127.484 18.5551C126.711 18.8777 125.953 19.0471 125.207 19.0649C123.201 19.0826 121.567 18.4696 120.308 17.2257C119.047 15.9818 118.417 14.2846 118.417 12.1372C118.417 9.98833 119.07 8.28949 120.373 7.03593C121.679 5.78398 123.326 5.17414 125.313 5.20964C126.165 5.20964 126.942 5.37097 127.643 5.69364C128.347 6.01469 128.865 6.4632 129.202 7.03593ZM125.714 8.62021C124.721 8.62021 123.893 8.93804 123.237 9.57369C122.58 10.2093 122.252 11.0644 122.252 12.1389C122.252 13.2133 122.58 14.0636 123.237 14.6895C123.893 15.3171 124.719 15.6301 125.714 15.6301C126.743 15.6301 127.583 15.2913 128.231 14.6105C128.879 13.9296 129.204 13.152 129.204 12.2744C129.204 11.2531 128.897 10.39 128.286 9.6834C127.671 8.97353 126.815 8.62021 125.714 8.62021Z" fill="#130033"/>
<path d="M144.518 14.5009L146.942 17.0257C145.574 18.3858 143.862 19.0667 141.803 19.0667C139.744 19.0667 138.03 18.4859 136.663 17.321C135.296 16.1579 134.612 14.4396 134.612 12.1648C134.612 10.0159 135.306 8.32024 136.689 7.07636C138.075 5.83248 139.77 5.20973 141.776 5.20973C143.799 5.20973 145.389 5.81796 146.542 7.03603L144.413 9.48023C143.738 8.96073 142.912 8.70099 141.936 8.70099C140.941 8.70099 140.115 9.00913 139.459 9.62704C138.801 10.2449 138.474 11.0903 138.474 12.1648C138.474 13.1844 138.801 13.9959 139.459 14.5944C140.115 15.1946 140.915 15.4947 141.856 15.4947C142.317 15.4947 142.801 15.4059 143.307 15.2269C143.812 15.0462 144.218 14.8058 144.518 14.5009Z" fill="#130033"/>
<path d="M156.882 12.1516C158.784 10.5818 160 8.1989 160 5.53207H156.165C156.165 7.78428 154.579 9.67026 152.477 10.1172V0.0015613H148.642V18.7711H152.477V14.186C154.581 14.6329 156.165 16.5189 156.165 18.7711H160C160 16.1043 158.784 13.7198 156.882 12.1516Z" fill="#130033"/>
<path d="M43.6182 16.5675C45.447 15.6189 46.3878 14.0701 46.4406 11.9211C46.487 10.7111 46.143 9.58338 45.4086 8.53794H46.4438V5.10153H39.399V5.10477C37.4566 5.11767 35.799 5.70654 34.431 6.87459C33.0454 8.05555 32.3542 9.72051 32.3542 11.8695C32.3542 13.9104 32.9974 15.535 34.2854 16.7434C35.5718 17.9518 37.2982 18.5552 39.4646 18.5552C41.5942 18.5552 42.6598 19.315 42.6598 20.838C42.6598 21.6253 42.3446 22.2303 41.7142 22.6514C41.0838 23.0725 40.3158 23.2822 39.4102 23.2822C37.3334 23.2822 36.2326 22.3868 36.1078 20.5976H32.5398C32.5046 22.5304 33.0758 24.0292 34.2566 25.0956C35.4374 26.1604 37.1542 26.6928 39.4102 26.6928C41.3622 26.6928 43.0406 26.183 44.4438 25.1618C45.8454 24.1421 46.5478 22.6998 46.5478 20.838C46.5462 18.8681 45.5702 17.4452 43.6182 16.5675ZM41.807 14.2056C41.167 14.7606 40.3862 15.0381 39.463 15.0381C38.487 15.0381 37.6742 14.7477 37.0262 14.1653C36.3782 13.5845 36.055 12.8181 36.055 11.8695C36.055 10.8305 36.3702 10.0158 37.0006 9.42527C37.631 8.83479 38.4518 8.53954 39.4646 8.53954C40.4054 8.53954 41.191 8.86222 41.8214 9.50594C42.4518 10.1497 42.767 10.9386 42.767 11.8695C42.7654 12.8714 42.4454 13.6506 41.807 14.2056Z" fill="#130033"/>
<path d="M10.784 10.8739C4.8368 10.8739 0 5.99515 0 0H5.2288C5.2288 3.08953 7.7216 5.60149 10.784 5.60149C13.848 5.60149 16.3392 3.08792 16.3392 0H21.568C21.568 5.99676 16.7312 10.8739 10.784 10.8739Z" fill="#8B4AFF"/>
<path d="M21.568 13.5101H0V18.7825H21.568V13.5101Z" fill="#8B4AFF"/>
<path d="M21.568 21.4186H0V26.691H21.568V21.4186Z" fill="#8B4AFF"/>
</svg>
